<?xml version="1.0" encoding="utf-8"?>
<!-- Generator: Adobe Illustrator 22.1.0, SVG Export Plug-In . SVG Version: 6.00 Build 0)  -->
<svg version="1.1" id="Layer_2" xmlns="http://www.w3.org/2000/svg" xmlns:xlink="http://www.w3.org/1999/xlink" x="0px" y="0px"
	 viewBox="0 0 724.4 265" style="enable-background:new 0 0 724.4 265;" xml:space="preserve">
<style type="text/css">
	.st0{fill:#FFFFFF;}
	.st1{fill:#D1D3D4;}
	.st2{fill:none;stroke:#ED1C24;stroke-width:2;stroke-linejoin:round;stroke-miterlimit:10;}
	.st3{fill:none;stroke:#00A14B;stroke-width:2;stroke-miterlimit:10;}
</style>
<polygon class="st0" points="270.9,105.8 263.7,123.7 269.7,157.7 283.2,145 283.9,127.8 274.2,121.6 "/>
<g>
	<g>
		<g>
			<g>
				<rect x="83" y="117.4" class="st1" width="4.7" height="12.9"/>
				<path class="st1" d="M88,130.5h-5.2v-13.4H88V130.5z M83.2,130.1h4.3v-12.5h-4.3V130.1z"/>
			</g>
			<rect x="85.2" y="111.9" class="st1" width="0.4" height="5.5"/>
		</g>
		<g>
			<g>
				<rect x="118.5" y="105.9" class="st1" width="4.7" height="18.8"/>
				<path class="st1" d="M123.5,124.9h-5.2v-19.2h5.2V124.9z M118.7,124.4h4.3v-18.3h-4.3V124.4z"/>
			</g>
			<rect x="120.7" y="124.6" class="st1" width="0.4" height="12.8"/>
		</g>
		<g>
			<g>
				<rect x="232.1" y="154.1" class="st1" width="4.7" height="24.6"/>
				<path class="st1" d="M237,178.9h-5.2v-25.1h5.2V178.9z M232.3,178.5h4.3v-24.2h-4.3V178.5z"/>
			</g>
			<rect x="234.2" y="178.7" class="st1" width="0.4" height="6.9"/>
		</g>
		<g>
			<g>
				<rect x="253.4" y="162.5" class="st1" width="4.7" height="12.9"/>
				<path class="st1" d="M258.3,175.7h-5.2v-13.4h5.2V175.7z M253.6,175.2h4.3v-12.5h-4.3V175.2z"/>
			</g>
			<rect x="255.5" y="155.6" class="st1" width="0.4" height="6.9"/>
		</g>
		<g>
			<g>
				<rect x="196.6" y="178.3" class="st1" width="4.7" height="10"/>
				<path class="st1" d="M201.5,188.6h-5.2v-10.5h5.2V188.6z M196.8,188.1h4.3v-9.6h-4.3V188.1z"/>
			</g>
			<rect x="198.7" y="174.3" class="st1" width="0.4" height="4"/>
		</g>
		<g>
			<g>
				<rect x="68.8" y="137.5" class="st1" width="4.7" height="10"/>
				<path class="st1" d="M73.8,147.7h-5.2v-10.5h5.2V147.7z M69,147.3h4.3v-9.6H69V147.3z"/>
			</g>
			<rect x="71" y="126.2" class="st1" width="0.4" height="11.3"/>
			<rect x="71" y="147.5" class="st1" width="0.4" height="20.8"/>
		</g>
		<g>
			<g>
				<rect x="97.2" y="118.8" class="st1" width="4.7" height="12.9"/>
				<path class="st1" d="M102.2,132H97v-13.4h5.2V132z M97.4,131.5h4.3V119h-4.3V131.5z"/>
			</g>
			<rect x="99.4" y="113.4" class="st1" width="0.4" height="5.5"/>
			<rect x="99.4" y="131.8" class="st1" width="0.4" height="4.7"/>
		</g>
		<g>
			<g>
				<rect x="210.8" y="175.5" class="st1" width="4.7" height="8.6"/>
				<path class="st1" d="M215.7,184.3h-5.2v-9h5.2V184.3z M211,183.9h4.3v-8.1H211V183.9z"/>
			</g>
			<rect x="212.9" y="173" class="st1" width="0.4" height="2.5"/>
			<rect x="212.9" y="184.1" class="st1" width="0.4" height="4.7"/>
		</g>
		<g>
			<g>
				<rect x="225" y="178.6" class="st1" width="4.7" height="8.6"/>
				<path class="st1" d="M229.9,187.4h-5.2v-9h5.2V187.4z M225.2,186.9h4.3v-8.1h-4.3V186.9z"/>
			</g>
			<rect x="227.1" y="171.7" class="st1" width="0.4" height="6.9"/>
			<rect x="227.1" y="187.1" class="st1" width="0.4" height="4.7"/>
		</g>
		<g>
			<g>
				<rect x="267.6" y="164" class="st1" width="4.7" height="4.2"/>
				<path class="st1" d="M272.5,168.4h-5.2v-4.6h5.2V168.4z M267.8,167.9h4.3v-3.7h-4.3V167.9z"/>
			</g>
			<rect x="269.7" y="158.5" class="st1" width="0.4" height="5.5"/>
			<rect x="269.7" y="168.2" class="st1" width="0.4" height="4.7"/>
		</g>
		<g>
			<g>
				<rect x="104.3" y="113.2" class="st1" width="4.7" height="5.6"/>
				<path class="st1" d="M109.3,119h-5.2V113h5.2V119z M104.5,118.6h4.3v-5.2h-4.3V118.6z"/>
			</g>
			<rect x="106.5" y="104.8" class="st1" width="0.4" height="8.4"/>
			<rect x="106.5" y="118.8" class="st1" width="0.4" height="15"/>
		</g>
		<g>
			<g>
				<rect x="168.2" y="165.7" class="st1" width="4.7" height="5.6"/>
				<path class="st1" d="M173.2,171.6H168v-6.1h5.2V171.6z M168.4,171.1h4.3v-5.2h-4.3V171.1z"/>
			</g>
			<rect x="170.3" y="171.3" class="st1" width="0.4" height="8.4"/>
			<rect x="170.3" y="150.7" class="st1" width="0.4" height="15"/>
		</g>
		<g>
			<g>
				<rect x="75.9" y="130.3" class="st1" width="4.7" height="7.1"/>
				<path class="st1" d="M80.9,137.6h-5.2v-7.5h5.2V137.6z M76.1,137.2h4.3v-6.7h-4.3V137.2z"/>
			</g>
			<rect x="78.1" y="104.4" class="st1" width="0.4" height="25.9"/>
			<rect x="78.1" y="137.4" class="st1" width="0.4" height="3.3"/>
		</g>
		<g>
			<g>
				<rect x="139.8" y="121.1" class="st1" width="4.7" height="21.7"/>
				<path class="st1" d="M144.8,143h-5.2v-22.1h5.2V143z M140,142.6h4.3v-21.3H140V142.6z"/>
			</g>
			<rect x="142" y="115.6" class="st1" width="0.4" height="5.5"/>
			<rect x="142" y="142.8" class="st1" width="0.4" height="6.2"/>
		</g>
		<g>
			<g>
				<rect x="132.7" y="117.1" class="st1" width="4.7" height="4.2"/>
				<path class="st1" d="M137.7,121.5h-5.2v-4.6h5.2V121.5z M132.9,121h4.3v-3.7h-4.3V121z"/>
			</g>
			<rect x="134.9" y="111.6" class="st1" width="0.4" height="5.5"/>
			<rect x="134.9" y="121.3" class="st1" width="0.4" height="6.2"/>
		</g>
		<g>
			<g>
				<rect x="189.5" y="172.5" class="st1" width="4.7" height="15.9"/>
				<path class="st1" d="M194.5,188.6h-5.2v-16.3h5.2V188.6z M189.7,188.1h4.3v-15.4h-4.3V188.1z"/>
			</g>
			<rect x="191.6" y="168.5" class="st1" width="0.4" height="4"/>
			<rect x="191.6" y="188.3" class="st1" width="0.4" height="3.3"/>
		</g>
		<g>
			<g>
				<rect x="217.9" y="175.7" class="st1" width="4.7" height="11.5"/>
				<path class="st1" d="M222.8,187.4h-5.2v-11.9h5.2V187.4z M218.1,186.9h4.3v-11h-4.3V186.9z"/>
			</g>
			<rect x="220" y="173.1" class="st1" width="0.4" height="2.6"/>
			<rect x="220" y="187.1" class="st1" width="0.4" height="7.7"/>
		</g>
		<g>
			<g>
				<rect x="239.2" y="154.1" class="st1" width="4.7" height="14.4"/>
				<path class="st1" d="M244.1,168.7H239v-14.8h5.2V168.7z M239.4,168.3h4.3v-14h-4.3V168.3z"/>
			</g>
			<rect x="241.3" y="151.6" class="st1" width="0.4" height="2.5"/>
			<rect x="241.3" y="168.5" class="st1" width="0.4" height="16.4"/>
		</g>
		<g>
			<g>
				<rect x="246.3" y="168.5" class="st1" width="4.7" height="7.1"/>
				<path class="st1" d="M251.2,175.8h-5.2v-7.5h5.2V175.8z M246.5,175.4h4.3v-6.7h-4.3V175.4z"/>
			</g>
			<rect x="248.4" y="166" class="st1" width="0.4" height="2.5"/>
			<rect x="248.4" y="175.6" class="st1" width="0.4" height="3.3"/>
		</g>
		<g>
			<g>
				<rect x="260.5" y="162.5" class="st1" width="4.7" height="5.6"/>
				<path class="st1" d="M265.4,168.4h-5.2v-6.1h5.2V168.4z M260.7,167.9h4.3v-5.2h-4.3V167.9z"/>
			</g>
			<rect x="262.6" y="160" class="st1" width="0.4" height="2.5"/>
			<rect x="262.6" y="168.2" class="st1" width="0.4" height="4.7"/>
		</g>
		<g>
			<g>
				<rect x="146.9" y="142.6" class="st1" width="4.7" height="4.2"/>
				<path class="st1" d="M151.9,147h-5.2v-4.6h5.2V147z M147.1,146.6h4.3v-3.7h-4.3V146.6z"/>
			</g>
			<rect x="149.1" y="137.1" class="st1" width="0.4" height="5.5"/>
			<rect x="149.1" y="146.8" class="st1" width="0.4" height="22.3"/>
		</g>
		<g>
			<g>
				<rect x="175.3" y="165.7" class="st1" width="4.7" height="4.2"/>
				<path class="st1" d="M180.3,170.1h-5.2v-4.6h5.2V170.1z M175.5,169.7h4.3v-3.7h-4.3V169.7z"/>
			</g>
			<rect x="177.4" y="160.2" class="st1" width="0.4" height="5.5"/>
			<rect x="177.4" y="169.9" class="st1" width="0.4" height="6.2"/>
		</g>
		<g>
			<g>
				<rect x="182.4" y="169.8" class="st1" width="4.7" height="2.7"/>
				<path class="st1" d="M187.4,172.7h-5.2v-3.2h5.2V172.7z M182.6,172.3h4.3V170h-4.3V172.3z"/>
			</g>
			<rect x="184.5" y="164.3" class="st1" width="0.4" height="5.5"/>
			<rect x="184.5" y="172.5" class="st1" width="0.4" height="7.7"/>
		</g>
		<g>
			<g>
				<rect x="111.4" y="113.2" class="st1" width="4.7" height="11.5"/>
				<path class="st1" d="M116.4,124.9h-5.2V113h5.2V124.9z M111.6,124.4h4.3v-11h-4.3V124.4z"/>
			</g>
			<rect x="113.6" y="107.7" class="st1" width="0.4" height="5.5"/>
			<rect x="113.6" y="124.7" class="st1" width="0.4" height="7.7"/>
		</g>
		<g>
			<g>
				<rect x="154" y="146.8" class="st1" width="4.7" height="18.8"/>
				<path class="st1" d="M159,165.8h-5.2v-19.2h5.2V165.8z M154.2,165.3h4.3V147h-4.3V165.3z"/>
			</g>
			<rect x="156.1" y="141.3" class="st1" width="0.4" height="5.5"/>
			<rect x="156.1" y="165.6" class="st1" width="0.4" height="7.7"/>
		</g>
		<g>
			<g>
				<rect x="125.6" y="105.9" class="st1" width="4.7" height="11.5"/>
				<path class="st1" d="M130.6,117.6h-5.2v-11.9h5.2V117.6z M125.8,117.1h4.3v-11h-4.3V117.1z"/>
			</g>
			<rect x="127.8" y="87.3" class="st1" width="0.4" height="18.6"/>
		</g>
		<g>
			<g>
				<rect x="161.1" y="165.6" class="st1" width="4.7" height="5.6"/>
				<path class="st1" d="M166.1,171.4h-5.2v-6.1h5.2V171.4z M161.3,171h4.3v-5.2h-4.3V171z"/>
			</g>
			<rect x="163.2" y="152.8" class="st1" width="0.4" height="12.8"/>
		</g>
		<g>
			<g>
				<rect x="203.7" y="178.3" class="st1" width="4.7" height="5.6"/>
				<path class="st1" d="M208.6,184.2h-5.2v-6.1h5.2V184.2z M203.9,183.7h4.3v-5.2h-4.3V183.7z"/>
			</g>
			<rect x="205.8" y="174.3" class="st1" width="0.4" height="4"/>
		</g>
		<g>
			<g>
				<rect x="90.1" y="117.4" class="st1" width="4.7" height="14.4"/>
				<path class="st1" d="M95.1,132h-5.2v-14.8h5.2V132z M90.3,131.5h4.3v-14h-4.3V131.5z"/>
			</g>
			<rect x="92.3" y="131.8" class="st1" width="0.4" height="6.9"/>
		</g>
		<g>
			<g>
				<rect x="274.7" y="148.1" class="st1" width="4.7" height="15.9"/>
				<path class="st1" d="M279.6,164.2h-5.2v-16.3h5.2V164.2z M274.9,163.8h4.3v-15.4h-4.3V163.8z"/>
			</g>
			<rect x="276.8" y="142.7" class="st1" width="0.4" height="5.5"/>
			<rect x="276.8" y="164" class="st1" width="0.4" height="9.1"/>
		</g>
		<g>
			<g>
				<rect x="324.4" y="127.5" class="st1" width="4.7" height="36.3"/>
				<path class="st1" d="M329.3,164h-5.2v-36.7h5.2V164z M324.6,163.6h4.3v-35.9h-4.3V163.6z"/>
			</g>
			<rect x="326.5" y="122" class="st1" width="0.4" height="5.5"/>
		</g>
		<g>
			<g>
				<rect x="345.7" y="97.7" class="st1" width="4.7" height="12.9"/>
				<path class="st1" d="M350.6,110.9h-5.2V97.5h5.2V110.9z M345.9,110.4h4.3V97.9h-4.3V110.4z"/>
			</g>
			<rect x="347.8" y="92.2" class="st1" width="0.4" height="5.5"/>
		</g>
		<g>
			<g>
				<rect x="381.1" y="86.1" class="st1" width="4.7" height="18.8"/>
				<path class="st1" d="M386.1,105.1h-5.2V85.8h5.2V105.1z M381.4,104.6h4.3V86.3h-4.3V104.6z"/>
			</g>
			<rect x="383.3" y="104.8" class="st1" width="0.4" height="12.8"/>
		</g>
		<g>
			<g>
				<rect x="494.7" y="134.4" class="st1" width="4.7" height="24.6"/>
				<path class="st1" d="M499.7,159.3h-5.2v-25.1h5.2V159.3z M494.9,158.8h4.3v-24.2h-4.3V158.8z"/>
			</g>
			<rect x="496.9" y="159.1" class="st1" width="0.4" height="6.9"/>
		</g>
		<g>
			<g>
				<rect x="516" y="143" class="st1" width="4.7" height="12.9"/>
				<path class="st1" d="M521,156.2h-5.2v-13.4h5.2V156.2z M516.2,155.7h4.3v-12.5h-4.3V155.7z"/>
			</g>
			<rect x="518.2" y="136.1" class="st1" width="0.4" height="6.9"/>
		</g>
		<g>
			<g>
				<rect x="459.2" y="158.9" class="st1" width="4.7" height="10"/>
				<path class="st1" d="M464.2,169.1H459v-10.5h5.2V169.1z M459.4,168.7h4.3v-9.6h-4.3V168.7z"/>
			</g>
			<rect x="461.4" y="154.9" class="st1" width="0.4" height="4"/>
		</g>
		<g>
			<g>
				<rect x="281.8" y="133.7" class="st1" width="4.7" height="14.4"/>
				<path class="st1" d="M286.7,148.3h-5.2v-14.8h5.2V148.3z M282,147.9h4.3v-14H282V147.9z"/>
			</g>
			<rect x="283.9" y="128.3" class="st1" width="0.4" height="5.5"/>
			<rect x="283.9" y="148.1" class="st1" width="0.4" height="4.7"/>
		</g>
		<g>
			<g>
				<rect x="331.5" y="117.7" class="st1" width="4.7" height="10"/>
				<path class="st1" d="M336.4,128h-5.2v-10.5h5.2V128z M331.7,127.5h4.3V118h-4.3V127.5z"/>
			</g>
			<rect x="333.6" y="106.4" class="st1" width="0.4" height="11.3"/>
			<rect x="333.6" y="127.8" class="st1" width="0.4" height="20.8"/>
		</g>
		<g>
			<g>
				<rect x="359.9" y="99" class="st1" width="4.7" height="12.9"/>
				<path class="st1" d="M364.8,112.2h-5.2V98.8h5.2V112.2z M360.1,111.7h4.3V99.2h-4.3V111.7z"/>
			</g>
			<rect x="362" y="93.5" class="st1" width="0.4" height="5.5"/>
			<rect x="362" y="111.9" class="st1" width="0.4" height="4.7"/>
		</g>
		<g>
			<g>
				<rect x="473.4" y="155.9" class="st1" width="4.7" height="8.6"/>
				<path class="st1" d="M478.4,164.7h-5.2v-9h5.2V164.7z M473.6,164.3h4.3v-8.1h-4.3V164.3z"/>
			</g>
			<rect x="475.6" y="153.4" class="st1" width="0.4" height="2.5"/>
			<rect x="475.6" y="164.5" class="st1" width="0.4" height="4.7"/>
		</g>
		<g>
			<g>
				<rect x="487.6" y="159.1" class="st1" width="4.7" height="8.6"/>
				<path class="st1" d="M492.6,167.8h-5.2v-9h5.2V167.8z M487.8,167.4h4.3v-8.1h-4.3V167.4z"/>
			</g>
			<rect x="489.8" y="152.1" class="st1" width="0.4" height="6.9"/>
			<rect x="489.8" y="167.6" class="st1" width="0.4" height="4.7"/>
		</g>
		<g>
			<g>
				<rect x="530.2" y="144.5" class="st1" width="4.7" height="4.2"/>
				<path class="st1" d="M535.2,148.9H530v-4.6h5.2V148.9z M530.4,148.4h4.3v-3.7h-4.3V148.4z"/>
			</g>
			<rect x="532.4" y="139" class="st1" width="0.4" height="5.5"/>
			<rect x="532.4" y="148.6" class="st1" width="0.4" height="4.7"/>
		</g>
		<g>
			<g>
				<rect x="366.9" y="93.4" class="st1" width="4.7" height="5.6"/>
				<path class="st1" d="M371.9,99.2h-5.2v-6.1h5.2V99.2z M367.2,98.8h4.3v-5.2h-4.3V98.8z"/>
			</g>
			<rect x="369.1" y="85" class="st1" width="0.4" height="8.4"/>
			<rect x="369.1" y="99" class="st1" width="0.4" height="15"/>
		</g>
		<g>
			<g>
				<rect x="430.8" y="146.1" class="st1" width="4.7" height="5.6"/>
				<path class="st1" d="M435.8,152h-5.2v-6.1h5.2V152z M431.1,151.5h4.3v-5.2h-4.3V151.5z"/>
			</g>
			<rect x="433" y="151.7" class="st1" width="0.4" height="8.4"/>
			<rect x="433" y="131.2" class="st1" width="0.4" height="14.9"/>
		</g>
		<g>
			<g>
				<rect x="338.6" y="110.6" class="st1" width="4.7" height="7.1"/>
				<path class="st1" d="M343.5,118h-5.2v-7.5h5.2V118z M338.8,117.5h4.3v-6.7h-4.3V117.5z"/>
			</g>
			<rect x="340.7" y="84.7" class="st1" width="0.4" height="25.9"/>
			<rect x="340.7" y="117.7" class="st1" width="0.4" height="3.3"/>
		</g>
		<g>
			<g>
				<rect x="288.9" y="126.6" class="st1" width="4.7" height="7.1"/>
				<path class="st1" d="M293.8,133.9h-5.2v-7.5h5.2V133.9z M289.1,133.5h4.3v-6.7h-4.3V133.5z"/>
			</g>
			<rect x="291" y="122.6" class="st1" width="0.4" height="4"/>
			<rect x="291" y="133.7" class="st1" width="0.4" height="12"/>
		</g>
		<g>
			<g>
				<rect x="296" y="126.6" class="st1" width="4.7" height="7.1"/>
				<path class="st1" d="M300.9,133.9h-5.2v-7.5h5.2V133.9z M296.2,133.5h4.3v-6.7h-4.3V133.5z"/>
			</g>
			<rect x="298.1" y="122.6" class="st1" width="0.4" height="4"/>
			<rect x="298.1" y="133.7" class="st1" width="0.4" height="12"/>
		</g>
		<g>
			<g>
				<rect x="303.1" y="133.7" class="st1" width="4.7" height="10"/>
				<path class="st1" d="M308,144h-5.2v-10.5h5.2V144z M303.3,143.5h4.3v-9.6h-4.3V143.5z"/>
			</g>
			<rect x="305.2" y="128.3" class="st1" width="0.4" height="5.5"/>
			<rect x="305.2" y="143.7" class="st1" width="0.4" height="6.2"/>
		</g>
		<g>
			<g>
				<rect x="402.4" y="101.7" class="st1" width="4.7" height="21.7"/>
				<path class="st1" d="M407.4,123.7h-5.2v-22.1h5.2V123.7z M402.7,123.2h4.3V102h-4.3V123.2z"/>
			</g>
			<rect x="404.6" y="96.3" class="st1" width="0.4" height="5.5"/>
			<rect x="404.6" y="123.4" class="st1" width="0.4" height="6.2"/>
		</g>
		<g>
			<g>
				<rect x="317.3" y="159.6" class="st1" width="4.7" height="4.2"/>
				<path class="st1" d="M322.2,164H317v-4.6h5.2V164z M317.5,163.6h4.3v-3.7h-4.3V163.6z"/>
			</g>
			<rect x="319.4" y="154.1" class="st1" width="0.4" height="5.5"/>
			<rect x="319.4" y="163.8" class="st1" width="0.4" height="6.2"/>
		</g>
		<g>
			<g>
				<rect x="395.3" y="97.7" class="st1" width="4.7" height="4.2"/>
				<path class="st1" d="M400.3,102.1h-5.2v-4.6h5.2V102.1z M395.6,101.6h4.3v-3.7h-4.3V101.6z"/>
			</g>
			<rect x="397.5" y="92.2" class="st1" width="0.4" height="5.5"/>
			<rect x="397.5" y="101.9" class="st1" width="0.4" height="6.2"/>
		</g>
		<g>
			<g>
				<rect x="452.1" y="152.8" class="st1" width="4.7" height="15.9"/>
				<path class="st1" d="M457.1,168.9h-5.2v-16.3h5.2V168.9z M452.4,168.5h4.3v-15.4h-4.3V168.5z"/>
			</g>
			<rect x="454.3" y="148.8" class="st1" width="0.4" height="4"/>
			<rect x="454.3" y="168.7" class="st1" width="0.4" height="3.3"/>
		</g>
		<g>
			<g>
				<rect x="480.5" y="155.9" class="st1" width="4.7" height="11.5"/>
				<path class="st1" d="M485.5,167.7h-5.2v-11.9h5.2V167.7z M480.7,167.2h4.3v-11h-4.3V167.2z"/>
			</g>
			<rect x="482.7" y="153.4" class="st1" width="0.4" height="2.6"/>
			<rect x="482.7" y="167.4" class="st1" width="0.4" height="7.7"/>
		</g>
		<g>
			<g>
				<rect x="501.8" y="134.4" class="st1" width="4.7" height="14.4"/>
				<path class="st1" d="M506.8,149.1h-5.2v-14.8h5.2V149.1z M502,148.6h4.3v-14H502V148.6z"/>
			</g>
			<rect x="504" y="131.9" class="st1" width="0.4" height="2.5"/>
			<rect x="504" y="148.8" class="st1" width="0.4" height="16.4"/>
		</g>
		<g>
			<g>
				<rect x="508.9" y="148.8" class="st1" width="4.7" height="7.1"/>
				<path class="st1" d="M513.9,156.2h-5.2v-7.5h5.2V156.2z M509.1,155.7h4.3v-6.7h-4.3V155.7z"/>
			</g>
			<rect x="511.1" y="146.3" class="st1" width="0.4" height="2.5"/>
			<rect x="511.1" y="155.9" class="st1" width="0.4" height="3.3"/>
		</g>
		<g>
			<g>
				<rect x="523.1" y="143" class="st1" width="4.7" height="5.6"/>
				<path class="st1" d="M528.1,148.9h-5.2v-6.1h5.2V148.9z M523.3,148.4h4.3v-5.2h-4.3V148.4z"/>
			</g>
			<rect x="525.3" y="140.5" class="st1" width="0.4" height="2.5"/>
			<rect x="525.3" y="148.6" class="st1" width="0.4" height="4.7"/>
		</g>
		<g>
			<g>
				<rect x="409.5" y="123.2" class="st1" width="4.7" height="4.2"/>
				<path class="st1" d="M414.5,127.6h-5.2v-4.6h5.2V127.6z M409.8,127.1h4.3v-3.7h-4.3V127.1z"/>
			</g>
			<rect x="411.7" y="117.7" class="st1" width="0.4" height="5.5"/>
			<rect x="411.7" y="127.3" class="st1" width="0.4" height="22.2"/>
		</g>
		<g>
			<g>
				<rect x="437.9" y="146.1" class="st1" width="4.7" height="4.2"/>
				<path class="st1" d="M442.9,150.5h-5.2v-4.6h5.2V150.5z M438.2,150.1h4.3v-3.7h-4.3V150.1z"/>
			</g>
			<rect x="440.1" y="140.6" class="st1" width="0.4" height="5.5"/>
			<rect x="440.1" y="150.3" class="st1" width="0.4" height="6.2"/>
		</g>
		<g>
			<g>
				<rect x="445" y="150.1" class="st1" width="4.7" height="2.7"/>
				<path class="st1" d="M450,153.1h-5.2v-3.2h5.2V153.1z M445.3,152.6h4.3v-2.3h-4.3V152.6z"/>
			</g>
			<rect x="447.2" y="144.7" class="st1" width="0.4" height="5.5"/>
			<rect x="447.2" y="152.8" class="st1" width="0.4" height="7.7"/>
		</g>
		<g>
			<g>
				<rect x="374" y="93.4" class="st1" width="4.7" height="11.5"/>
				<path class="st1" d="M379,105.1h-5.2V93.1h5.2V105.1z M374.3,104.6h4.3v-11h-4.3V104.6z"/>
			</g>
			<rect x="376.2" y="87.9" class="st1" width="0.4" height="5.5"/>
			<rect x="376.2" y="104.8" class="st1" width="0.4" height="7.7"/>
		</g>
		<g>
			<g>
				<rect x="416.6" y="127.3" class="st1" width="4.7" height="18.8"/>
				<path class="st1" d="M421.6,146.3h-5.2v-19.2h5.2V146.3z M416.9,145.9h4.3v-18.3h-4.3V145.9z"/>
			</g>
			<rect x="418.8" y="121.9" class="st1" width="0.4" height="5.5"/>
			<rect x="418.8" y="146.1" class="st1" width="0.4" height="7.7"/>
		</g>
		<g>
			<g>
				<rect x="310.2" y="143.7" class="st1" width="4.7" height="15.9"/>
				<path class="st1" d="M315.1,159.8h-5.2v-16.3h5.2V159.8z M310.4,159.4h4.3V144h-4.3V159.4z"/>
			</g>
			<rect x="312.3" y="136.8" class="st1" width="0.4" height="6.9"/>
		</g>
		<g>
			<g>
				<rect x="388.2" y="86.2" class="st1" width="4.7" height="11.5"/>
				<path class="st1" d="M393.2,97.9H388V86h5.2V97.9z M388.5,97.5h4.3v-11h-4.3V97.5z"/>
			</g>
			<rect x="390.4" y="67.6" class="st1" width="0.4" height="18.6"/>
		</g>
		<g>
			<g>
				<rect x="423.7" y="146.1" class="st1" width="4.7" height="5.6"/>
				<path class="st1" d="M428.7,152h-5.2v-6.1h5.2V152z M424,151.5h4.3v-5.2H424V151.5z"/>
			</g>
			<rect x="425.9" y="133.3" class="st1" width="0.4" height="12.8"/>
		</g>
		<g>
			<g>
				<rect x="466.3" y="158.9" class="st1" width="4.7" height="5.6"/>
				<path class="st1" d="M471.3,164.7h-5.2v-6.1h5.2V164.7z M466.5,164.3h4.3v-5.2h-4.3V164.3z"/>
			</g>
			<rect x="468.5" y="154.9" class="st1" width="0.4" height="4"/>
		</g>
		<g>
			<g>
				<rect x="352.8" y="97.7" class="st1" width="4.7" height="14.4"/>
				<path class="st1" d="M357.7,112.3h-5.2V97.5h5.2V112.3z M353,111.9h4.3v-14H353V111.9z"/>
			</g>
			<rect x="354.9" y="112.1" class="st1" width="0.4" height="6.9"/>
		</g>
		<g>
			<g>
				<rect x="551.5" y="114.8" class="st1" width="4.7" height="12.9"/>
				<path class="st1" d="M556.5,128h-5.2v-13.4h5.2V128z M551.7,127.6h4.3v-12.5h-4.3V127.6z"/>
			</g>
			<rect x="553.6" y="109.4" class="st1" width="0.4" height="5.5"/>
		</g>
		<g>
			<g>
				<rect x="587" y="103.6" class="st1" width="4.7" height="18.8"/>
				<path class="st1" d="M592,122.6h-5.2v-19.2h5.2V122.6z M587.2,122.2h4.3v-18.3h-4.3V122.2z"/>
			</g>
			<rect x="589.1" y="122.4" class="st1" width="0.4" height="12.8"/>
		</g>
		<g>
			<g>
				<rect x="537.3" y="134.7" class="st1" width="4.7" height="10"/>
				<path class="st1" d="M542.3,145h-5.2v-10.5h5.2V145z M537.5,144.5h4.3v-9.6h-4.3V144.5z"/>
			</g>
			<rect x="539.5" y="123.4" class="st1" width="0.4" height="11.3"/>
			<rect x="539.5" y="144.7" class="st1" width="0.4" height="20.8"/>
		</g>
		<g>
			<g>
				<rect x="565.7" y="116.3" class="st1" width="4.7" height="12.9"/>
				<path class="st1" d="M570.7,129.5h-5.2v-13.4h5.2V129.5z M565.9,129h4.3v-12.5h-4.3V129z"/>
			</g>
			<rect x="567.8" y="110.8" class="st1" width="0.4" height="5.5"/>
			<rect x="567.8" y="129.2" class="st1" width="0.4" height="4.7"/>
		</g>
		<g>
			<g>
				<rect x="572.8" y="110.7" class="st1" width="4.7" height="5.6"/>
				<path class="st1" d="M577.8,116.5h-5.2v-6.1h5.2V116.5z M573,116.1h4.3v-5.2H573V116.1z"/>
			</g>
			<rect x="574.9" y="102.3" class="st1" width="0.4" height="8.4"/>
			<rect x="574.9" y="116.3" class="st1" width="0.4" height="15"/>
		</g>
		<g>
			<g>
				<rect x="636.7" y="164" class="st1" width="4.7" height="5.6"/>
				<path class="st1" d="M641.6,169.8h-5.2v-6.1h5.2V169.8z M636.9,169.4h4.3v-5.2h-4.3V169.4z"/>
			</g>
			<rect x="638.8" y="169.6" class="st1" width="0.4" height="8.4"/>
			<rect x="638.8" y="149" class="st1" width="0.4" height="15"/>
		</g>
		<g>
			<g>
				<rect x="544.4" y="127.8" class="st1" width="4.7" height="7.1"/>
				<path class="st1" d="M549.4,135.1h-5.2v-7.5h5.2V135.1z M544.6,134.7h4.3V128h-4.3V134.7z"/>
			</g>
			<rect x="546.6" y="101.9" class="st1" width="0.4" height="25.9"/>
			<rect x="546.6" y="134.9" class="st1" width="0.4" height="3.3"/>
		</g>
		<g>
			<g>
				<rect x="608.3" y="119" class="st1" width="4.7" height="21.7"/>
				<path class="st1" d="M613.2,140.9h-5.2v-22.1h5.2V140.9z M608.5,140.5h4.3v-21.3h-4.3V140.5z"/>
			</g>
			<rect x="610.4" y="113.5" class="st1" width="0.4" height="5.5"/>
			<rect x="610.4" y="140.7" class="st1" width="0.4" height="6.2"/>
		</g>
		<g>
			<g>
				<rect x="601.2" y="114.8" class="st1" width="4.7" height="4.2"/>
				<path class="st1" d="M606.2,119.2H601v-4.6h5.2V119.2z M601.4,118.8h4.3v-3.7h-4.3V118.8z"/>
			</g>
			<rect x="603.3" y="109.4" class="st1" width="0.4" height="5.5"/>
			<rect x="603.3" y="119" class="st1" width="0.4" height="6.2"/>
		</g>
		<g>
			<g>
				<rect x="615.4" y="140.8" class="st1" width="4.7" height="4.2"/>
				<path class="st1" d="M620.3,145.3h-5.2v-4.6h5.2V145.3z M615.6,144.8h4.3v-3.7h-4.3V144.8z"/>
			</g>
			<rect x="617.5" y="135.4" class="st1" width="0.4" height="5.5"/>
			<rect x="617.5" y="145" class="st1" width="0.4" height="22.3"/>
		</g>
		<g>
			<g>
				<rect x="643.8" y="163.8" class="st1" width="4.7" height="4.2"/>
				<path class="st1" d="M648.7,168.2h-5.2v-4.6h5.2V168.2z M644,167.8h4.3v-3.7H644V167.8z"/>
			</g>
			<rect x="645.9" y="158.4" class="st1" width="0.4" height="5.5"/>
			<rect x="645.9" y="168" class="st1" width="0.4" height="6.2"/>
		</g>
		<g>
			<g>
				<rect x="650.9" y="167.9" class="st1" width="4.7" height="2.7"/>
				<path class="st1" d="M655.8,170.8h-5.2v-3.2h5.2V170.8z M651.1,170.4h4.3v-2.3h-4.3V170.4z"/>
			</g>
			<rect x="653" y="162.4" class="st1" width="0.4" height="5.5"/>
			<rect x="653" y="170.6" class="st1" width="0.4" height="7.7"/>
		</g>
		<g>
			<g>
				<rect x="579.9" y="110.8" class="st1" width="4.7" height="11.5"/>
				<path class="st1" d="M584.9,122.5h-5.2v-11.9h5.2V122.5z M580.1,122h4.3v-11h-4.3V122z"/>
			</g>
			<rect x="582" y="105.3" class="st1" width="0.4" height="5.5"/>
			<rect x="582" y="122.3" class="st1" width="0.4" height="7.7"/>
		</g>
		<g>
			<g>
				<rect x="622.5" y="145" class="st1" width="4.7" height="18.8"/>
				<path class="st1" d="M627.4,164h-5.2v-19.2h5.2V164z M622.7,163.6h4.3v-18.3h-4.3V163.6z"/>
			</g>
			<rect x="624.6" y="139.6" class="st1" width="0.4" height="5.5"/>
			<rect x="624.6" y="163.8" class="st1" width="0.4" height="7.7"/>
		</g>
		<g>
			<g>
				<rect x="594.1" y="103.6" class="st1" width="4.7" height="11.5"/>
				<path class="st1" d="M599.1,115.3h-5.2v-11.9h5.2V115.3z M594.3,114.9h4.3v-11h-4.3V114.9z"/>
			</g>
			<rect x="596.2" y="85" class="st1" width="0.4" height="18.6"/>
		</g>
		<g>
			<g>
				<rect x="629.6" y="163.8" class="st1" width="4.7" height="5.6"/>
				<path class="st1" d="M634.5,169.7h-5.2v-6.1h5.2V169.7z M629.8,169.2h4.3V164h-4.3V169.2z"/>
			</g>
			<rect x="631.7" y="151" class="st1" width="0.4" height="12.8"/>
		</g>
		<g>
			<g>
				<rect x="558.6" y="114.8" class="st1" width="4.7" height="14.4"/>
				<path class="st1" d="M563.6,129.5h-5.2v-14.8h5.2V129.5z M558.8,129h4.3v-14h-4.3V129z"/>
			</g>
			<rect x="560.7" y="129.2" class="st1" width="0.4" height="6.9"/>
		</g>
	</g>
	<g>
		<path class="st1" d="M658.5,124.4c-4.5,0.3-9,1-13.4,2.1c-17.6,4.5-33.2,13.8-48.3,22.8c-4.9,2.9-9.9,5.9-14.9,8.7
			c-26.5,14.7-48.7,19.6-68,15c-14.8-3.6-27.1-12.8-39.1-21.7c-11.9-8.9-24.2-18.1-39-21.7c-13.3-3.3-27.4-2.1-43.2,3.6
			c-12,4.3-24.5,11-39.5,21.2c-1.7,1.1-3.4,2.3-5.1,3.5c-22.8,15.6-46.3,31.7-74.1,32.2c-0.5,0-0.9,0-1.4,0
			c-24.1,0-44.7-11.6-66.5-23.8c-14.8-8.3-30.2-17-46.7-21.5c-32.1-8.7-69-0.5-93.4,20.6v0.8c24.3-21.2,61.2-29.6,93.2-20.8
			c16.4,4.5,31.8,13.1,46.6,21.4c20.9,11.7,42.4,23.8,66.8,23.8c0.4,0,0.9,0,1.3,0c27.9-0.5,51.5-16.7,74.4-32.3
			c1.7-1.2,3.4-2.3,5.1-3.5c22.6-15.4,52.4-32.1,82.2-24.7c14.7,3.6,27,12.8,38.8,21.6c12,8.9,24.4,18.2,39.3,21.8
			c4.7,1.1,9.6,1.7,14.7,1.7c15.9,0,33.6-5.5,53.7-16.8c5-2.8,10-5.8,14.9-8.7c15.1-9,30.7-18.3,48.2-22.8c4.3-1.1,8.7-1.8,13.3-2.1
			V124.4z"/>
		<path class="st1" d="M658.5,152.2c-1,0.3-2,0.6-3,1c-6,2-12,4.5-17.8,6.9c-11,4.5-22.3,9.2-34.3,10.9c-21.1,3.1-42.1-2.9-62.4-8.8
			c-17.9-5.1-36.4-10.4-55-9.7c-22.7,0.9-43.8,10.6-64.1,19.9c-20.9,9.6-42.5,19.5-65.8,19.8c-23.9,0.3-46.2-9.4-67.8-18.9
			c-8.8-3.8-17.8-7.8-26.9-11C196.6,139,118.6,151.6,66,193.4v0.8c52.5-41.9,130.5-54.6,195.2-31.4c9,3.2,18.1,7.2,26.8,11
			c21.3,9.3,43.2,18.9,66.8,18.9c0.4,0,0.8,0,1.2,0c23.4-0.3,45-10.3,66-19.9c20.3-9.3,41.3-19,63.9-19.8c18.6-0.7,37,4.6,54.9,9.7
			c16.6,4.8,33.6,9.6,50.8,9.6c4,0,7.9-0.3,11.9-0.8c12.1-1.8,23.4-6.4,34.4-11c5.8-2.4,11.8-4.8,17.8-6.8c0.8-0.3,1.8-0.6,2.8-0.9
			V152.2z"/>
		<path class="st1" d="M148.6,131.2c12.6,7.5,22.9,18,32.9,28.2c2.9,3,5.9,6,8.9,9c8,7.8,15,13.5,22,18c8.9,5.6,17.6,9,26.5,10.4
			c3,0.5,6,0.7,9.1,0.7c9.4,0,19-2.2,28.8-6.5c11-4.8,22.1-12.4,32.2-21.8c7.8-7.3,14.9-15.4,21.8-23.2
			c9.5-10.8,19.4-21.9,30.9-31.1c18.4-14.6,47.1-26.5,72.5-16.1c20.2,8.3,31.1,27.8,41.6,46.7c5.5,9.8,11.2,20,18.1,28.4
			c7.8,9.4,16.3,15.6,26.2,18.9c10,3.3,21,3.4,32.8,0.3c10.3-2.7,20.7-7.7,30.1-14.6c10.2-7.5,19.3-16.5,28-25.2
			c6.3-6.3,12.8-12.8,19.7-18.7c7.4-6.3,16.8-13,27.7-17.6v-0.6c-11,4.6-20.6,11.5-28.1,17.8c-6.9,5.9-13.5,12.4-19.8,18.8
			c-8.7,8.7-17.7,17.7-27.9,25.2c-20.6,15-43.9,20.3-62.4,14.2c-21.7-7.2-33-27.5-44-47.1c-10.6-19-21.5-38.6-41.9-47
			c-11.2-4.6-24.4-5.2-38.1-1.6c-12,3.1-24.5,9.4-35,17.8c-11.6,9.2-21.5,20.4-31,31.2c-6.9,7.8-14,15.9-21.8,23.2
			c-13,12.3-39.4,32.1-69.7,27.5c-20.3-3.1-36.4-16.7-48.2-28.2c-3-2.9-6-6-8.9-9c-10-10.2-20.3-20.8-33-28.3
			c-13.6-8.1-30.5-12.3-47.6-12c-12.4,0.2-24.6,2.9-35.4,7.6v0.6C91.9,115.4,124.2,116.7,148.6,131.2z"/>
	</g>
</g>
<g>
	<path d="M289.6,112.7h22.7v6.4h-7.8v36.8h-7.2v-36.8h-7.8V112.7z"/>
	<path d="M322.9,155.8h-7.2v-43.2h10.2c6.8,0,11.8,3.9,11.8,13.3c0,5.9-2,9.6-5.1,11.6l6.4,18.3h-7.5l-5.4-16.5h-3.3V155.8z
		 M324.9,119.1h-2v13.7h2c4,0,5.7-2.3,5.7-6.8C330.6,121.5,328.9,119.1,324.9,119.1z"/>
	<path d="M357.8,147.1h-8.6l-1.8,8.8H340l9.9-43.2h7.2l9.9,43.2h-7.3L357.8,147.1z M350.5,140.7h5.9l-3-14.8L350.5,140.7z"/>
	<path d="M370,155.8v-43.2h10.4c7.8,0,11.7,4.3,11.7,13.4v16.3c0,9.2-3.9,13.4-11.7,13.4H370z M380.3,149.4c3.1,0,4.5-1.7,4.5-7.3
		v-15.7c0-5.6-1.4-7.3-4.5-7.3h-3.2v30.4H380.3z"/>
	<path d="M404.1,155.8h-7.2v-43.2h7.2V155.8z"/>
	<path d="M416.8,129.4v26.5h-7v-43.2h6.4l9.9,26.5v-26.5h7v43.2h-6.4L416.8,129.4z"/>
</g>
<path d="M329.9,199.8h-3.1v8.5h-6.7v-8.5h-11.9v-5.3l11-29.4h7.6v28.7h3.1V199.8z M320.1,193.8v-16.2l-5.9,16.2H320.1z"/>
<path d="M333.9,165.1h7.2v36.8h13v6.4h-20.1V165.1z"/>
<path d="M364.5,208.3h-7.2v-43.2h7.2V208.3z"/>
<path d="M377.1,208.3l-9.5-43.2h7.3l5.8,29.6l5.8-29.6h7.3l-9.5,43.2H377.1z"/>
<path d="M404.1,208.3h-7.2v-43.2h7.2V208.3z"/>
<path d="M416.8,181.8v26.5h-7v-43.2h6.4l9.9,26.5v-26.5h7v43.2h-6.4L416.8,181.8z"/>
<path d="M461.9,172.5c7.8,0,14.2,6.4,14.2,14.2s-6.4,14.2-14.2,14.2s-14.2-6.4-14.2-14.2S454.1,172.5,461.9,172.5 M461.9,165.5
	c-11.7,0-21.2,9.5-21.2,21.2c0,11.7,9.5,21.2,21.2,21.2s21.2-9.5,21.2-21.2C483.1,175,473.6,165.5,461.9,165.5L461.9,165.5z
	 M465.1,189.4c-0.7,0.7-1.6,1.1-2.7,1.1c-2.1,0-3.8-1.7-3.8-3.8s1.7-3.8,3.8-3.8c1,0,2,0.4,2.7,1.1l3.5-3.5
	c-1.6-1.6-3.8-2.6-6.2-2.6c-4.9,0-8.8,3.9-8.8,8.8s3.9,8.8,8.8,8.8c2.4,0,4.6-1,6.2-2.6L465.1,189.4z"/>
<g>
	<polygon class="st2" points="208.8,127.6 219.2,159.5 228.2,157.9 233,142.5 232.9,142.3 	"/>
	<polygon class="st2" points="233,142.5 233,142.4 232.9,142.3 	"/>
	<polygon class="st2" points="240.7,117.4 220.4,107.6 232.9,142.3 233,142.4 240.7,117.4 	"/>
	<polygon class="st2" points="208.8,127.6 208.8,127.6 208.8,127.6 208.8,127.6 187.2,165.2 187.4,165.3 219.2,159.5 208.8,127.6 	
		"/>
	<polygon class="st2" points="240.7,117.4 240.7,117.4 251.6,153.7 251.6,153.7 263.7,123.7 240.7,117.4 	"/>
	<polygon class="st2" points="233,142.4 251.6,153.7 240.7,117.4 	"/>
	<polygon class="st2" points="161.4,149.4 161.4,149.4 165.5,169.2 187.1,165.3 187.2,165.2 187.2,165.2 	"/>
	<polygon class="st2" points="187.2,165.2 187.2,165.3 187.4,165.3 187.2,165.2 	"/>
	<polygon class="st2" points="187.2,165.2 187.2,165.2 187.2,165.2 	"/>
	<polygon class="st2" points="161.4,149.4 161.4,149.4 161.4,149.4 161.4,149.4 	"/>
	<polygon class="st2" points="187.2,165.2 187.2,165.2 187.2,165.2 	"/>
	<polygon class="st2" points="187.2,165.2 187.2,165.2 187.2,165.2 	"/>
	<polygon class="st2" points="161.4,149.4 161.4,149.4 161.4,149.4 	"/>
	<polygon class="st2" points="240.7,117.4 240.7,117.4 263.7,123.7 263.7,123.7 246.5,104.3 245.2,102.9 245.2,102.9 	"/>
	<polygon class="st2" points="240.7,117.4 240.7,117.4 245.2,102.9 245.2,102.9 245.2,102.9 236.9,104.5 	"/>
	<polygon class="st2" points="245.2,102.9 231.9,87.7 236.9,104.5 	"/>
	<polygon class="st2" points="263.7,123.7 266.6,116.6 245.2,102.9 246.5,104.3 	"/>
	<polygon class="st2" points="263.7,123.7 263.7,123.7 263.7,123.7 	"/>
	<polygon class="st2" points="220.4,107.6 220.4,107.6 231.9,87.7 198.8,96.8 198.8,96.8 	"/>
	<polygon class="st2" points="263.7,123.7 263.7,123.7 263.7,123.7 	"/>
	<polygon class="st2" points="278.1,140 278.1,140 278.1,140 	"/>
	<polygon class="st2" points="278.1,140 283.1,145.7 283.9,127.8 283.9,127.8 278.1,140 	"/>
	<polygon class="st2" points="263.7,123.7 263.7,123.7 263.7,123.7 278.1,140 278.1,140 274.2,121.6 266.6,116.6 263.7,123.7 	"/>
	<polygon class="st2" points="283.9,127.8 274.2,121.6 278.1,140 	"/>
	<polygon class="st2" points="236.9,104.5 231.9,87.7 231.9,87.7 220.4,107.6 	"/>
	<polygon class="st2" points="270.9,105.8 266.6,116.6 274.2,121.6 	"/>
	<polygon class="st2" points="120.7,177.3 144.6,173 108.5,157.6 	"/>
	<polygon class="st2" points="198.8,96.8 203.4,110.8 220.4,107.6 	"/>
	<polygon class="st2" points="269.7,157.7 278.1,140 263.7,123.7 	"/>
	<polygon class="st2" points="134.4,199.4 144.6,173 120.7,177.3 	"/>
	<polygon class="st2" points="223.5,172.9 228.2,157.9 219.2,159.5 	"/>
	<polygon class="st2" points="269.7,157.7 269.7,157.7 269.7,157.7 	"/>
	<polygon class="st2" points="282.5,160.6 282.5,160.6 282.5,160.6 	"/>
	<polygon class="st2" points="261,159.4 269.7,157.7 251.6,153.7 	"/>
	<polygon class="st2" points="113,178.6 119.3,208.5 134.4,199.4 120.7,177.3 	"/>
	<polygon class="st2" points="235.1,208.5 250.2,199.4 223.5,172.9 	"/>
	<polygon class="st2" points="108.5,157.6 113,178.6 120.7,177.3 	"/>
	<polygon class="st2" points="220.4,107.6 220.4,107.6 220.4,107.6 	"/>
	<polygon class="st2" points="220.4,107.6 240.7,117.4 236.9,104.5 220.4,107.6 220.4,107.6 	"/>
	<polygon class="st2" points="208.8,127.6 208.8,127.6 203.4,110.8 186.5,114.1 186.5,114.1 	"/>
	<polygon class="st2" points="154,120.2 150.1,142.5 161.4,149.4 161.4,149.4 	"/>
	<polygon class="st2" points="240.7,117.4 240.7,117.4 240.7,117.4 	"/>
	<polygon class="st2" points="186.5,114.1 186.5,114.1 186.5,114.1 	"/>
	<polygon class="st2" points="161.4,149.4 186.5,114.1 186.5,114.1 154,120.2 154,120.2 161.4,149.4 	"/>
	<polygon class="st2" points="220.4,107.6 220.4,107.6 203.4,110.8 208.8,127.6 	"/>
	<polygon class="st2" points="208.8,127.6 208.8,127.6 232.9,142.3 220.4,107.6 220.4,107.6 	"/>
	<polygon class="st2" points="161.4,149.4 161.4,149.4 187.2,165.2 186.8,137.7 	"/>
	<polygon class="st2" points="187.2,165.2 187.2,165.2 208.8,127.6 186.8,137.7 	"/>
	<polygon class="st2" points="161.4,149.4 186.8,137.7 186.5,114.1 186.8,137.7 208.8,127.6 208.8,127.6 186.5,114.1 	"/>
	<polygon class="st2" points="208.8,127.6 208.8,127.6 208.8,127.6 	"/>
	<polygon class="st2" points="123.3,126.1 108.5,157.6 133.5,148.5 	"/>
	<polygon class="st2" points="278.1,140 282.5,160.6 282.5,160.6 283.1,145.7 	"/>
	<polygon class="st2" points="250.2,199.4 251.1,170.7 228.2,157.9 	"/>
	<polygon class="st2" points="269.7,157.7 269.7,157.7 269.7,157.7 	"/>
	<polygon class="st2" points="283.1,145.7 282.5,160.6 282.5,160.6 289.3,152.6 	"/>
	<polygon class="st2" points="233,142.4 233,142.5 233,142.5 233,142.5 228.2,157.9 251.6,153.7 251.6,153.7 	"/>
	<polygon class="st2" points="269.7,157.7 263.7,123.7 263.7,123.7 263.7,123.7 251.6,153.7 251.6,153.7 269.7,157.7 269.7,157.7 	
		"/>
	<polygon class="st2" points="223.5,172.9 223.5,172.9 250.2,199.4 228.2,157.9 251.1,170.7 251.6,153.7 228.2,157.9 	"/>
	<polygon class="st2" points="251.6,153.7 251.6,153.7 251.6,153.7 	"/>
	<polygon class="st2" points="251.6,153.7 251.6,153.7 251.6,153.7 	"/>
	<polygon class="st2" points="278.1,140 269.7,157.7 269.7,157.7 269.7,157.7 269.7,157.7 282.5,160.6 278.1,140 	"/>
	<polygon class="st2" points="198.8,96.8 198.8,96.8 198.8,96.8 	"/>
	<polygon class="st2" points="108.5,157.6 144.6,173 133.5,148.5 	"/>
	<polygon class="st2" points="150.1,142.5 123.3,126.1 133.5,148.5 	"/>
	<polygon class="st2" points="150.1,142.5 133.5,148.5 144.6,173 150.1,142.5 	"/>
	<polygon class="st2" points="187.1,165.3 165.5,169.2 170.6,193.9 165.5,169.2 144.6,173 170.6,193.9 	"/>
	<polygon class="st2" points="161.4,149.4 144.6,173 165.5,169.2 	"/>
	<polygon class="st2" points="150.1,142.5 150.1,142.5 150.1,142.5 154,120.2 154,120.2 154,120.2 154,120.2 123.3,126.1 
		123.3,126.1 150.1,142.5 	"/>
	<polygon class="st2" points="161.4,149.4 150.1,142.5 144.6,173 161.4,149.4 	"/>
	<polygon class="st2" points="158.3,96.8 123.3,126.1 154,120.2 	"/>
	<polygon class="st2" points="198.8,96.8 198.8,96.8 198.8,96.8 198.8,96.8 	"/>
	<polygon class="st2" points="203.4,110.8 198.8,96.8 198.8,96.8 198.8,96.8 186.5,114.1 	"/>
	<polygon class="st2" points="186.5,114.1 198.8,96.8 158.3,96.8 186.5,114.1 	"/>
	<polygon class="st2" points="186.5,114.1 158.3,96.8 158.3,96.8 154,120.2 	"/>
	<polygon class="st2" points="187.2,165.3 214.7,199.4 223.5,172.9 187.4,165.3 	"/>
	<polygon class="st2" points="219.2,159.5 187.4,165.3 223.5,172.9 223.5,172.9 	"/>
	<polygon class="st2" points="187.2,165.2 187.2,165.2 187.2,165.3 187.2,165.3 	"/>
	<polygon class="st2" points="187.2,165.3 199.5,208.5 214.7,199.4 187.2,165.3 	"/>
	<polygon class="st2" points="187.2,165.2 187.1,165.3 187.2,165.3 187.2,165.2 	"/>
	<polygon class="st2" points="170.6,193.9 144.6,173 162.2,208.5 162.2,208.5 	"/>
	<polygon class="st2" points="170.6,193.9 177.3,199.4 187.1,165.3 187.1,165.3 	"/>
	<polygon class="st2" points="162.2,208.5 177.3,199.4 170.6,193.9 	"/>
	<polygon class="st2" points="223.5,172.9 223.5,172.9 223.5,172.9 	"/>
	<polygon class="st2" points="187.1,165.3 187.1,165.3 187.2,165.2 	"/>
	<polygon class="st2" points="162.2,208.5 188.3,208.5 177.3,199.4 162.2,208.5 	"/>
	<polygon class="st2" points="162.2,208.5 162.2,208.5 162.2,208.5 	"/>
	<polygon class="st2" points="225.7,208.5 214.7,199.4 199.5,208.5 	"/>
	<polygon class="st2" points="235.1,208.5 261.2,208.5 250.2,199.4 235.1,208.5 	"/>
	<polygon class="st2" points="235.1,208.5 235.1,208.5 235.1,208.5 	"/>
	<polygon class="st2" points="145.4,208.5 134.4,199.4 119.3,208.5 	"/>
</g>
<g>
	<line class="st3" x1="433.8" y1="78.4" x2="440.1" y2="59.9"/>
	<line class="st3" x1="440.1" y1="59.9" x2="477.7" y2="149.2"/>
	<line class="st3" x1="478.4" y1="57.9" x2="433.8" y2="78.4"/>
	<line class="st3" x1="411.9" y1="58.6" x2="478.4" y2="57.9"/>
	<line class="st3" x1="411.9" y1="58.6" x2="445.6" y2="73"/>
	<line class="st3" x1="433.8" y1="78.4" x2="452.6" y2="111.7"/>
	<polyline class="st3" points="452.6,111.7 444.2,107.6 445.6,73 	"/>
	<line class="st3" x1="478.4" y1="57.9" x2="639.1" y2="119.9"/>
	<line class="st3" x1="639.1" y1="119.9" x2="637.7" y2="101.9"/>
	<line class="st3" x1="515.2" y1="208.5" x2="560.9" y2="89.8"/>
	<line class="st3" x1="503.2" y1="208.5" x2="512.5" y2="184.3"/>
	<line class="st3" x1="452.6" y1="111.7" x2="516.2" y2="73"/>
	<line class="st3" x1="637.7" y1="101.9" x2="584.9" y2="99"/>
	<line class="st3" x1="603.9" y1="181.7" x2="575.1" y2="124.7"/>
	<line class="st3" x1="639.1" y1="119.9" x2="589" y2="208.5"/>
	<line class="st3" x1="503.2" y1="208.5" x2="515.2" y2="208.5"/>
	<line class="st3" x1="589" y1="208.5" x2="601" y2="208.5"/>
	<line class="st3" x1="553.5" y1="175.4" x2="619.2" y2="155.1"/>
	<line class="st3" x1="477.7" y1="149.2" x2="553.5" y2="175.4"/>
	<line class="st3" x1="445.6" y1="73" x2="524.5" y2="115.7"/>
	<line class="st3" x1="477.7" y1="149.2" x2="560.9" y2="89.8"/>
	<line class="st3" x1="478.4" y1="57.9" x2="460" y2="107.2"/>
	<line class="st3" x1="478.4" y1="57.9" x2="619.2" y2="155.1"/>
	<line class="st3" x1="639.1" y1="119.9" x2="624.4" y2="173.2"/>
	<line class="st3" x1="627.2" y1="182.2" x2="624.4" y2="173.2"/>
	<line class="st3" x1="601" y1="208.5" x2="618" y2="181.5"/>
	<line class="st3" x1="483" y1="93.2" x2="477.7" y2="149.2"/>
	<line class="st3" x1="637.7" y1="101.9" x2="575.1" y2="124.7"/>
	<line class="st3" x1="530" y1="167.3" x2="512.5" y2="184.3"/>
	<line class="st3" x1="618" y1="181.5" x2="619.2" y2="155.1"/>
	<line class="st3" x1="586" y1="99.1" x2="553.5" y2="175.4"/>
	<line class="st3" x1="483" y1="93.2" x2="478.4" y2="57.9"/>
	<line class="st3" x1="444.5" y1="97.3" x2="460" y2="107.2"/>
	<line class="st3" x1="631.1" y1="134.1" x2="624.4" y2="173.2"/>
	<line class="st3" x1="603.6" y1="181.2" x2="610" y2="194.2"/>
	<line class="st3" x1="601" y1="208.5" x2="593.4" y2="200.7"/>
	<line class="st3" x1="565.4" y1="208.5" x2="577.4" y2="208.5"/>
	<line class="st3" x1="577.4" y1="208.5" x2="599.8" y2="172.9"/>
	<line class="st3" x1="565.4" y1="208.5" x2="594.6" y2="162"/>
	<line class="st3" x1="577.4" y1="208.5" x2="569.8" y2="200.7"/>
	<line class="st3" x1="515.2" y1="208.5" x2="506.6" y2="200.7"/>
	<line class="st3" x1="495.9" y1="208.5" x2="507.3" y2="179"/>
	<line class="st3" x1="483.9" y1="208.5" x2="498.6" y2="170.3"/>
	<line class="st3" x1="483.9" y1="208.5" x2="495.9" y2="208.5"/>
	<line class="st3" x1="495.9" y1="208.5" x2="487.3" y2="200.7"/>
	<line class="st3" x1="624.4" y1="173.2" x2="631.8" y2="178.5"/>
	<line class="st3" x1="627.2" y1="182.2" x2="631.8" y2="178.5"/>
	<line class="st3" x1="477.7" y1="149.2" x2="521.2" y2="193"/>
	<line class="st3" x1="512.5" y1="184.3" x2="483" y2="93.2"/>
	<line class="st3" x1="498.6" y1="170.3" x2="495.9" y2="208.5"/>
	<line class="st3" x1="507.8" y1="78.3" x2="553.5" y2="175.4"/>
	<line class="st3" x1="539.4" y1="145.5" x2="496.7" y2="135.6"/>
	<line class="st3" x1="553.2" y1="109.6" x2="553.5" y2="175.4"/>
	<line class="st3" x1="614.1" y1="110.3" x2="619.2" y2="155.1"/>
	<line class="st3" x1="504.1" y1="158.4" x2="539.4" y2="145.5"/>
	<line class="st3" x1="594" y1="163.1" x2="577.4" y2="208.5"/>
	<line class="st3" x1="593.4" y1="200.7" x2="610" y2="194.2"/>
	<line class="st3" x1="603.9" y1="181.7" x2="618" y2="181.5"/>
	<line class="st3" x1="553.2" y1="109.6" x2="586" y2="99.1"/>
	<line class="st3" x1="614.1" y1="110.3" x2="553.5" y2="175.4"/>
	<line class="st3" x1="516.2" y1="73" x2="543" y2="102.5"/>
	<line class="st3" x1="524.5" y1="115.7" x2="553.2" y2="109.6"/>
</g>
</svg>
